<?xml version="1.0" encoding="UTF-8" standalone="no"?>
<svg
   xmlns:dc="http://purl.org/dc/elements/1.1/"
   xmlns:cc="http://creativecommons.org/ns#"
   xmlns:rdf="http://www.w3.org/1999/02/22-rdf-syntax-ns#"
   xmlns:svg="http://www.w3.org/2000/svg"
   xmlns="http://www.w3.org/2000/svg"
   xmlns:sodipodi="http://sodipodi.sourceforge.net/DTD/sodipodi-0.dtd"
   xmlns:inkscape="http://www.inkscape.org/namespaces/inkscape"
   viewBox="0 0 841.9 595.3"
   version="1.1"
   id="svg10"
   sodipodi:docname="logo.svg"
   inkscape:version="0.92.5 (2060ec1f9f, 2020-04-08)">
  <metadata
     id="metadata16">
    <rdf:RDF>
      <cc:Work
         rdf:about="">
        <dc:format>image/svg+xml</dc:format>
        <dc:type
           rdf:resource="http://purl.org/dc/dcmitype/StillImage" />
      </cc:Work>
    </rdf:RDF>
  </metadata>
  <defs
     id="defs14" />
  <sodipodi:namedview
     pagecolor="#ffffff"
     bordercolor="#666666"
     borderopacity="1"
     objecttolerance="10"
     gridtolerance="10"
     guidetolerance="10"
     inkscape:pageopacity="0"
     inkscape:pageshadow="2"
     inkscape:window-width="1844"
     inkscape:window-height="1132"
     id="namedview12"
     showgrid="false"
     inkscape:zoom="1.1212982"
     inkscape:cx="334.79345"
     inkscape:cy="181.2328"
     inkscape:window-x="72"
     inkscape:window-y="27"
     inkscape:window-maximized="1"
     inkscape:current-layer="svg10" />
  <path
     inkscape:connector-curvature="0"
     id="path4698"
     d="m 411.57993,506.57477 -189.64148,0.15739 -4.49715,-1.21362 -4.49714,-1.21362 -2.74082,-1.69392 -2.74083,-1.69392 -3.29899,-3.74785 -3.29899,-3.74785 -1.49718,-4.29123 -1.49719,-4.29122 V 294.3675 103.89607 l 1.58529,-4.55648 1.58529,-4.55647 4.64746,-4.64747 4.64747,-4.64746 4.55648,-1.58529 4.55647,-1.58529 h 190.47143 190.47143 l 4.55647,1.58529 4.55649,1.58529 4.64746,4.64746 4.64746,4.64747 1.58529,4.55647 1.58529,4.55648 V 294.3675 484.83893 l -1.58529,4.55647 -1.58529,4.55648 -4.63926,4.63438 -4.63927,4.63437 -4.14971,1.59837 -4.1497,1.59839 z m -1.8985,-26.34377 164.50464,0.0432 4.77758,-1.78752 4.77757,-1.78751 4.25527,-4.25528 4.25528,-4.25527 1.78751,-4.77757 1.78752,-4.77757 V 294.3675 130.10147 l -1.78752,-4.77757 -1.78751,-4.77757 -4.25528,-4.25527 -4.25527,-4.25528 -4.77757,-1.78752 -4.77758,-1.78751 H 409.92005 245.65403 l -4.77757,1.78751 -4.77758,1.78752 -4.25527,4.25528 -4.25528,4.25527 -1.78751,4.77757 -1.78752,4.77757 V 294.3675 458.63352 l 1.78752,4.77758 1.78751,4.77757 4.2582,4.25819 4.25819,4.2582 4.53604,1.74135 4.53603,1.74135 z m -27.35691,-29.03539 -1.03743,-0.0307 -10.78923,-2.83026 -10.78923,-2.83026 -6.61804,-2.58492 -6.61805,-2.58492 -6.92313,-3.38231 -6.92315,-3.3823 -7.08265,-4.44664 -7.08265,-4.44662 -7.01496,-5.47768 -7.01496,-5.47767 -6.93241,-6.93242 -6.93241,-6.9324 -5.36737,-6.89028 -5.36737,-6.89026 -3.76979,-5.84514 -3.7698,-5.84514 -3.82201,-7.42767 -3.822,-7.42766 -3.18915,-8.30566 -3.18915,-8.30565 -2.16417,-8.29941 -2.16416,-8.29941 -1.3557,-8.71438 -1.3557,-8.71438 v -14.52396 -14.52397 l 1.3557,-8.71438 1.3557,-8.71438 2.16416,-8.2994 2.16417,-8.29941 3.18915,-8.30565 3.18915,-8.30566 3.822,-7.42766 3.82201,-7.42768 3.7698,-5.84514 3.76979,-5.84514 5.36737,-6.89027 5.36737,-6.89027 6.93241,-6.93241 6.93241,-6.93241 6.89028,-5.36737 6.89027,-5.36737 5.84514,-3.7698 5.84514,-3.76979 7.42767,-3.82201 7.42766,-3.822 8.31536,-3.21188 8.31536,-3.21188 10.25709,-2.58145 10.25708,-2.58144 h 0.72993 0.72992 v 26.80971 26.80972 l -6.01092,1.93595 -6.01092,1.93595 -6.20595,2.82814 -6.20594,2.82814 -8.32417,5.53848 -8.32417,5.53848 -7.49704,7.49703 -7.49703,7.49704 -5.53848,8.32416 -5.53848,8.32418 -2.8705,6.29889 -2.8705,6.2989 -2.05586,6.54042 -2.05588,6.54043 -1.33423,7.82321 -1.33425,7.82319 v 9.6668 9.66679 l 1.33425,7.8232 1.33423,7.8232 2.05588,6.54044 2.05586,6.54042 2.8705,6.29889 2.8705,6.2989 5.53848,8.32417 5.53848,8.32417 7.49703,7.49704 7.49704,7.49703 8.32417,5.53847 8.32417,5.53849 6.20594,2.82814 6.20595,2.82814 6.01092,1.93594 6.01092,1.93596 v 26.80971 26.80972 z m 54.88356,0.0307 h -0.72992 v -26.80972 -26.80971 l 6.01092,-1.93596 6.01092,-1.93594 6.20595,-2.82814 6.20594,-2.82814 8.32417,-5.53849 8.32417,-5.53847 7.49704,-7.49703 7.49703,-7.49704 5.53848,-8.32417 5.53848,-8.32417 2.8705,-6.2989 2.8705,-6.29889 2.05586,-6.54042 2.05588,-6.54044 1.33423,-7.8232 1.33425,-7.8232 v -9.66679 -9.6668 l -1.33425,-7.82319 -1.33423,-7.82321 -2.05588,-6.54043 -2.05586,-6.54042 -2.8705,-6.2989 -2.8705,-6.29889 -5.53848,-8.32418 -5.53848,-8.32416 -7.49703,-7.49704 -7.49704,-7.49703 -8.32417,-5.53848 -8.32417,-5.53848 -6.20594,-2.82814 L 448.5,195 l -6.01092,-1.93595 -6.01092,-1.93595 v -26.80971 -26.80971 h 0.72992 0.72993 l 10.25708,2.58144 10.25709,2.58145 8.31536,3.21188 8.31536,3.21188 7.42766,3.822 7.42767,3.82201 5.84514,3.76979 5.84514,3.7698 6.89027,5.36737 6.89028,5.36737 6.93241,6.93241 6.93241,6.93241 5.36737,6.89027 5.36737,6.89027 3.76979,5.84514 3.7698,5.84514 3.82201,7.42768 3.82201,7.42766 3.18914,8.30566 3.18916,8.30565 2.16415,8.29941 2.16416,8.2994 1.3557,8.71438 1.3557,8.71438 v 14.52397 14.52396 l -1.3557,8.71438 -1.3557,8.71438 -2.16416,8.29941 -2.16415,8.29941 -3.18916,8.30565 -3.18914,8.30566 -3.82201,7.42766 -3.82201,7.42767 -3.7698,5.84514 -3.76979,5.84514 -5.36737,6.89027 -5.36737,6.89028 -6.93241,6.9324 -6.93241,6.93242 -6.89028,5.36736 -6.89027,5.36737 -5.84514,3.7698 -5.84514,3.7698 -7.42767,3.822 -7.42766,3.82201 -8.31536,3.21187 -8.31536,3.21188 -10.25709,2.58145 -10.25708,2.58145 z m -24.26851,-90.93597 -7.58419,0.37799 -4.94735,-0.77476 -4.94734,-0.77477 -4.59698,-1.33029 -4.59697,-1.33028 -5.80785,-2.90773 -5.80784,-2.90773 -3.8339,-2.81433 -3.83388,-2.81433 -5.42379,-5.74949 -5.42378,-5.7495 -2.86229,-4.88376 -2.8623,-4.88377 -2.11778,-5.35321 -2.11778,-5.35322 -1.07046,-4.97965 -1.07047,-4.97964 v -8.71438 -8.71438 l 1.07047,-4.97965 1.07046,-4.97964 2.11778,-5.35322 2.11778,-5.35322 2.8623,-4.88376 2.86229,-4.88376 5.42378,-5.7495 5.42379,-5.74949 3.83388,-2.81434 3.8339,-2.81433 6.01617,-3.01931 6.01617,-3.0193 6.4312,-1.73093 6.4312,-1.73091 h 10.37426 10.37426 l 6.4312,1.73091 6.4312,1.73093 6.01617,3.0193 6.01617,3.01931 3.8339,2.81433 3.83388,2.81434 5.42379,5.74949 5.42378,5.7495 2.86229,4.88376 2.8623,4.88376 2.11778,5.35322 2.11778,5.35322 1.07046,4.97964 1.07047,4.97965 v 8.71438 8.71438 l -1.07047,4.97964 -1.07046,4.97965 -2.11778,5.35322 -2.11778,5.35321 -2.8623,4.88377 -2.86229,4.88376 -5.42378,5.7495 -5.42379,5.74949 -3.83388,2.81433 -3.8339,2.81433 -6.01617,3.01931 -6.01617,3.01931 -6.31647,1.61548 -6.31647,1.61548 z m -2.18958,-32.95357 7.88444,-0.18662 5.39699,-2.55772 5.397,-2.55772 4.07942,-4.07943 4.07943,-4.07943 2.55772,-5.39699 2.55772,-5.39699 v -8.71438 -8.71438 l -2.55772,-5.39699 -2.55772,-5.397 -4.07943,-4.07942 -4.07942,-4.07944 -5.397,-2.55772 -5.39699,-2.55772 h -8.71438 -8.71438 l -5.39699,2.55772 -5.397,2.55772 -4.07942,4.07944 -4.07943,4.07942 -2.55772,5.397 -2.55772,5.39699 v 8.71438 8.71438 l 2.55772,5.39699 2.55772,5.39699 3.97365,3.97365 3.97364,3.97364 3.38254,1.72565 3.38255,1.72565 2.95017,1.12447 2.95017,1.12448 z"
     style="fill:#000000;stroke-width:0.82994086" />
</svg>
